<svg width="1068" height="334" viewBox="0 0 1068 334" fill="none" xmlns="http://www.w3.org/2000/svg">
<path d="M1066.66 167.05C1066.48 166.771 1066.64 166.238 1067.13 165.447C1067.31 165.724 1067.16 166.26 1066.66 167.05Z" fill="#543BF6"/>
<path d="M445.758 3.25313C444.863 4.04515 443.376 5.16305 441.885 5.16701C406.689 5.26072 371.493 5.24314 336.297 5.19458C335.03 5.19283 333.764 4.66886 331.986 4.1699C332.9 3.64156 334.325 3.06241 335.751 3.06098C372.221 3.02393 408.692 3.04726 445.758 3.25313Z" fill="#080D19"/>
<path d="M725.51 3.51892C724.928 4.32033 723.953 5.08823 722.98 5.08453C706.656 5.02223 690.333 4.86366 673.564 4.41727C690.452 3.78083 707.785 3.45358 725.51 3.51892Z" fill="#080D19"/>
<path d="M764.949 3.24341C764.698 4.00755 763.849 5.06256 763.006 5.05799C751.78 4.9972 740.554 4.78795 728.909 4.26441C740.445 3.62267 752.399 3.3322 764.949 3.24341Z" fill="#080D19"/>
<path d="M668.601 3.99794C659.363 4.31582 649.542 4.52364 639.275 4.42282C648.559 4.03875 658.289 3.96332 668.601 3.99794Z" fill="#080D19"/>
<path d="M394.121 43.2286C396.525 42.8153 399.495 42.5212 402.605 42.6805C400.059 43.2052 397.372 43.2765 394.121 43.2286Z" fill="#080D19"/>
<path d="M329.638 4.0164C325.242 4.34849 320.245 4.57476 314.829 4.47067C319.286 4.06374 324.162 3.98716 329.638 4.0164Z" fill="#080D19"/>
<path d="M634.586 3.55114C632.079 4.17205 629.257 4.42393 626.039 4.3882C628.519 3.79443 631.395 3.48827 634.586 3.55114Z" fill="#080D19"/>
<path d="M775.541 3.93272C773.89 4.1492 771.774 4.18064 769.476 3.83253C771.221 3.55121 773.149 3.64945 775.541 3.93272Z" fill="#080D19"/>
<path d="M325.417 43.2283C328.276 42.7748 331.729 42.4378 335.442 42.6236C332.471 43.2126 329.241 43.2786 325.417 43.2283Z" fill="#080D19"/>
<path d="M452.398 4.02855C451.746 4.32006 450.606 4.49899 449.197 4.39978C449.922 4.05308 450.916 3.98452 452.398 4.02855Z" fill="#080D19"/>
<path d="M371.513 43.228C371.881 42.82 372.719 42.5264 373.722 42.6729C373.253 43.1895 372.618 43.2659 371.513 43.228Z" fill="#080D19"/>
<path d="M306.12 4.1142C306.14 4.47084 305.782 4.76706 305.071 5.08312C305.059 4.75322 305.401 4.4035 306.12 4.1142Z" fill="#080D19"/>
<path d="M634.9 2.92018C635.885 2.93799 636.87 2.95578 638.788 3.35251C649.542 3.52363 659.363 3.31582 669.185 3.10801C670.17 3.06116 671.155 3.0143 673.075 3.34695C690.333 3.86366 706.656 4.02223 722.98 4.08453C723.953 4.08823 724.928 3.32033 725.903 2.91149C726.478 2.92261 727.053 2.93373 728.478 3.28027C740.554 3.78797 751.78 3.99721 763.006 4.05801C763.849 4.06257 764.698 3.00757 765.544 2.44511C766.488 2.35864 767.432 2.27216 769.017 2.69887C771.774 3.18063 773.89 3.14919 776.006 3.11774C782.869 5.2051 782.142 10.8705 780.495 15.3628C778.108 21.8741 774.734 28.1688 770.885 33.9598C766.731 40.2086 760.187 42.4734 752.615 42.4522C714.181 42.3444 675.747 42.4023 637.313 42.4206C627.425 42.4253 618.615 45.2608 612.19 53.1514C605.221 61.7111 603.71 71.3923 608.166 81.5271C613.137 92.8366 622.798 97.8393 634.501 98.0229C660.19 98.4257 685.89 98.1522 711.586 98.1222C746.705 98.0811 770.293 115.213 781.056 149.49C781.116 161.049 780.99 171.607 780.865 182.166C774.691 201.377 763.873 217.024 744.647 224.698C735.876 228.2 726.087 230.777 716.722 230.896C668.669 231.509 620.604 231.154 572.543 231.237C567.521 231.246 563.904 230.022 563.228 224.391C561.904 213.374 573.603 195.803 585.249 192.378C589.239 191.943 592.31 191.805 595.381 191.804C634.674 191.791 673.966 191.787 713.259 191.808C720.429 191.812 727.221 190.781 732.641 185.484C741.732 178.567 744.237 169.186 741.642 158.612C739.01 147.885 731.533 140.918 720.879 139.022C712.351 137.505 703.45 137.994 694.71 137.783C687.921 137.618 681.124 137.748 673.344 137.225C667.339 136.966 662.32 137.228 657.301 137.491C656.709 137.586 656.117 137.681 654.707 137.242C646.674 136.959 639.461 137.21 632.248 137.461C583.362 139.121 550.063 85.8414 572.134 41.1037C582.891 19.2984 600.295 6.3607 625.494 3.32576C629.257 3.42394 632.079 3.17206 634.9 2.92018Z" fill="#080D19"/>
<path d="M446.474 114.566C462.867 111.454 474.702 103.143 478.571 86.0264C483.521 64.1275 466.495 42.6782 443.968 42.4397C430.61 42.2983 417.25 42.3986 403.178 41.8087C399.495 41.5212 396.525 41.8153 393.556 42.1094C387.386 42.1973 381.217 42.2852 374.302 41.8029C372.719 41.5264 371.881 41.82 371.044 42.1136C359.658 42.2096 348.271 42.3056 336.034 41.7512C331.729 41.4378 328.276 41.7748 324.823 42.1119C303.83 43.427 301.53 42.4984 302.454 21.4271C302.699 15.8323 303.364 10.2559 304.63 4.36716C305.782 3.76704 306.14 3.47082 306.498 3.1746C308.761 3.1088 311.024 3.04299 314.268 3.3891C320.245 3.57476 325.242 3.3485 330.239 3.12223C330.239 3.12223 330.846 2.95914 331.672 3.1737C333.764 3.66885 335.03 4.19281 336.297 4.19456C371.493 4.24313 406.689 4.2607 441.885 4.167C443.376 4.16303 444.863 3.04513 446.352 2.44617C446.987 2.60804 447.621 2.7699 448.861 3.30483C450.606 3.49897 451.746 3.32004 452.886 3.14112C476.95 5.20389 495.449 17.1847 507.896 37.1324C537.187 84.073 511.215 142.755 459.557 152.235C459.202 152.3 458.895 152.629 457.96 153.213C465.514 161.254 472.912 169.225 480.415 177.095C494.965 192.357 509.611 207.528 524.104 222.844C525.623 224.45 526.388 226.77 527.502 228.759C525.207 229.562 522.924 231.016 520.614 231.059C508.096 231.289 495.549 231.602 483.063 230.928C478.964 230.707 474.005 228.603 471.165 225.682C449.577 203.483 428.366 180.915 407.181 158.328C404.11 155.054 400.982 153.428 396.383 153.534C379.061 153.935 361.731 153.988 343.464 154.486C342.613 156.971 342.702 159.141 342.79 161.31C342.896 181.931 343.014 202.552 343.098 223.173C343.119 228.392 340.974 231.367 335.218 231.229C326.883 231.028 318.534 231.332 310.202 231.075C308.009 231.007 305.855 229.665 303.158 228.03C302.567 224.316 302.449 221.481 302.445 218.645C302.395 187.194 302.362 155.744 302.325 124.293C304.398 121.515 306.471 118.738 309.667 116.1C355.468 116.295 400.145 116.349 444.822 116.399C445.689 116.4 446.557 116.341 447.424 116.31C447.107 115.728 446.79 115.147 446.474 114.566Z" fill="#080D19"/>
<path d="M124.693 79.4865C112.982 101.05 101.243 122.598 89.5673 144.181C75.0725 170.973 60.8075 197.893 45.9276 224.469C44.1678 227.612 39.3146 230.437 35.6311 230.812C26.4961 231.741 17.2078 231.224 7.98163 231.179C0.0652333 231.141 -1.94302 227.843 1.87048 220.891C18.5241 190.529 35.3587 160.266 51.94 129.865C71.5646 93.8848 90.9906 57.7959 110.514 21.7603C119.493 5.188 136.005 0.0629859 150.012 9.94743C153.624 12.496 156.833 16.2882 158.935 20.203C194.592 86.6402 230.053 153.182 265.532 219.715C270.129 228.335 268.388 231.142 258.618 231.161C250.71 231.176 242.793 230.961 234.896 231.268C228.592 231.513 224.826 228.82 221.92 223.31C198.11 178.155 174.111 133.101 149.796 87.2361C144.793 77.6843 140.162 68.9117 134.925 58.9916C131.09 66.6725 127.892 73.0795 124.693 79.4865Z" fill="#080D19"/>
<path d="M941.295 226.569C942.108 225.633 943.377 224.838 945.165 224.027C944.374 224.91 943.062 225.81 941.295 226.569Z" fill="#682BF4"/>
<path d="M125.272 170.507C146.547 164.124 168.413 181.619 163.442 205.996C160.819 218.855 149.547 228.476 136.534 229.354C123.539 230.232 111.092 222.182 106.561 209.97C101.97 197.595 106.131 183.055 116.754 175.119C119.18 173.307 122.084 172.133 125.272 170.507Z" fill="#6C2DFF"/>
<path d="M445.855 115.442C446.79 116.147 447.107 116.728 447.424 117.31C446.557 117.341 445.689 117.4 444.822 117.399C400.145 117.349 355.468 117.295 310.099 117.106C312.55 116.377 315.692 115.268 318.836 115.263C360.969 115.191 403.102 115.274 445.855 115.442Z" fill="#080D19"/>
<path d="M632.853 138.59C639.461 138.21 646.674 137.959 654.275 138.099C647.593 138.566 640.525 138.642 632.853 138.59Z" fill="#080D19"/>
<path d="M657.897 138.619C662.32 138.228 667.339 137.966 672.739 138.086C668.244 138.562 663.368 138.655 657.897 138.619Z" fill="#080D19"/>
<path d="M342.975 161.779C342.702 160.141 342.613 157.971 342.971 155.719C343.331 157.507 343.245 159.378 342.975 161.779Z" fill="#080D19"/>
<circle cx="921.881" cy="115.5" r="97" stroke="url(#paint0_linear_4_128)" stroke-width="37"/>
<rect x="914.381" width="15" height="39" fill="#FDFDFE"/>
<rect x="914.381" y="194" width="15" height="37" fill="#FDFDFE"/>
<path d="M112.227 326.17C108.284 326.17 104.925 325.52 102.152 324.22C99.3788 322.92 97.2555 321.122 95.7821 318.825C94.3088 316.528 93.5721 313.928 93.5721 311.025H99.9421C99.9421 312.455 100.31 313.885 101.047 315.315C101.827 316.745 103.105 317.937 104.882 318.89C106.702 319.843 109.15 320.32 112.227 320.32C115.087 320.32 117.427 319.908 119.247 319.085C121.067 318.218 122.41 317.113 123.277 315.77C124.144 314.383 124.577 312.888 124.577 311.285C124.577 309.335 123.732 307.732 122.042 306.475C120.352 305.175 117.882 304.373 114.632 304.07L109.367 303.615C105.164 303.268 101.805 301.968 99.2921 299.715C96.7788 297.462 95.5221 294.493 95.5221 290.81C95.5221 287.907 96.2155 285.372 97.6021 283.205C99.0321 281.038 101.004 279.348 103.517 278.135C106.03 276.878 108.955 276.25 112.292 276.25C115.585 276.25 118.489 276.857 121.002 278.07C123.515 279.283 125.465 280.995 126.852 283.205C128.282 285.372 128.997 287.972 128.997 291.005H122.627C122.627 289.488 122.259 288.058 121.522 286.715C120.829 285.372 119.724 284.267 118.207 283.4C116.69 282.533 114.719 282.1 112.292 282.1C109.952 282.1 108.002 282.512 106.442 283.335C104.925 284.158 103.777 285.242 102.997 286.585C102.26 287.885 101.892 289.293 101.892 290.81C101.892 292.543 102.564 294.082 103.907 295.425C105.25 296.768 107.244 297.548 109.887 297.765L115.152 298.22C118.402 298.48 121.197 299.173 123.537 300.3C125.92 301.383 127.74 302.857 128.997 304.72C130.297 306.54 130.947 308.728 130.947 311.285C130.947 314.188 130.167 316.767 128.607 319.02C127.047 321.273 124.859 323.028 122.042 324.285C119.225 325.542 115.954 326.17 112.227 326.17ZM188.892 326.17C184.645 326.17 180.983 325.412 177.907 323.895C174.83 322.378 172.295 320.385 170.302 317.915C168.308 315.445 166.813 312.802 165.817 309.985C164.863 307.168 164.387 304.46 164.387 301.86V300.43C164.387 297.613 164.885 294.775 165.882 291.915C166.878 289.055 168.395 286.455 170.432 284.115C172.468 281.732 175.003 279.825 178.037 278.395C181.113 276.965 184.732 276.25 188.892 276.25C193.052 276.25 196.648 276.965 199.682 278.395C202.758 279.825 205.315 281.732 207.352 284.115C209.388 286.455 210.905 289.055 211.902 291.915C212.898 294.775 213.397 297.613 213.397 300.43V301.86C213.397 304.46 212.898 307.168 211.902 309.985C210.948 312.802 209.475 315.445 207.482 317.915C205.488 320.385 202.953 322.378 199.877 323.895C196.8 325.412 193.138 326.17 188.892 326.17ZM188.892 320.32C191.665 320.32 194.157 319.8 196.367 318.76C198.62 317.72 200.527 316.312 202.087 314.535C203.647 312.715 204.838 310.678 205.662 308.425C206.485 306.128 206.897 303.723 206.897 301.21C206.897 298.567 206.485 296.097 205.662 293.8C204.838 291.503 203.647 289.488 202.087 287.755C200.527 285.978 198.62 284.592 196.367 283.595C194.157 282.598 191.665 282.1 188.892 282.1C186.118 282.1 183.605 282.598 181.352 283.595C179.142 284.592 177.257 285.978 175.697 287.755C174.137 289.488 172.945 291.503 172.122 293.8C171.298 296.097 170.887 298.567 170.887 301.21C170.887 303.723 171.298 306.128 172.122 308.425C172.945 310.678 174.137 312.715 175.697 314.535C177.257 316.312 179.142 317.72 181.352 318.76C183.605 319.8 186.118 320.32 188.892 320.32ZM249.877 325V277.55H256.247V325H249.877ZM254.947 325V319.28H276.657V325H254.947ZM328.876 326.17C324.586 326.17 320.967 325.347 318.021 323.7C315.117 322.01 312.907 319.67 311.391 316.68C309.917 313.647 309.181 310.137 309.181 306.15V277.55H315.551V306.93C315.551 309.573 316.049 311.913 317.046 313.95C318.086 315.943 319.602 317.503 321.596 318.63C323.589 319.757 326.016 320.32 328.876 320.32C331.736 320.32 334.141 319.778 336.091 318.695C338.084 317.568 339.579 316.008 340.576 314.015C341.616 311.978 342.136 309.617 342.136 306.93V277.55H348.506V306.15C348.506 310.137 347.769 313.647 346.296 316.68C344.822 319.67 342.634 322.01 339.731 323.7C336.827 325.347 333.209 326.17 328.876 326.17ZM396.483 325V281.97H402.853V325H396.483ZM382.053 283.27V277.55H417.283V283.27H382.053ZM451.977 325V277.55H458.347V325H451.977ZM519.541 326.17C515.294 326.17 511.633 325.412 508.556 323.895C505.479 322.378 502.944 320.385 500.951 317.915C498.958 315.445 497.463 312.802 496.466 309.985C495.513 307.168 495.036 304.46 495.036 301.86V300.43C495.036 297.613 495.534 294.775 496.531 291.915C497.528 289.055 499.044 286.455 501.081 284.115C503.118 281.732 505.653 279.825 508.686 278.395C511.763 276.965 515.381 276.25 519.541 276.25C523.701 276.25 527.298 276.965 530.331 278.395C533.408 279.825 535.964 281.732 538.001 284.115C540.038 286.455 541.554 289.055 542.551 291.915C543.548 294.775 544.046 297.613 544.046 300.43V301.86C544.046 304.46 543.548 307.168 542.551 309.985C541.598 312.802 540.124 315.445 538.131 317.915C536.138 320.385 533.603 322.378 530.526 323.895C527.449 325.412 523.788 326.17 519.541 326.17ZM519.541 320.32C522.314 320.32 524.806 319.8 527.016 318.76C529.269 317.72 531.176 316.312 532.736 314.535C534.296 312.715 535.488 310.678 536.311 308.425C537.134 306.128 537.546 303.723 537.546 301.21C537.546 298.567 537.134 296.097 536.311 293.8C535.488 291.503 534.296 289.488 532.736 287.755C531.176 285.978 529.269 284.592 527.016 283.595C524.806 282.598 522.314 282.1 519.541 282.1C516.768 282.1 514.254 282.598 512.001 283.595C509.791 284.592 507.906 285.978 506.346 287.755C504.786 289.488 503.594 291.503 502.771 293.8C501.948 296.097 501.536 298.567 501.536 301.21C501.536 303.723 501.948 306.128 502.771 308.425C503.594 310.678 504.786 312.715 506.346 314.535C507.906 316.312 509.791 317.72 512.001 318.76C514.254 319.8 516.768 320.32 519.541 320.32ZM580.526 325V277.55H590.926L615.041 319.28H617.121L615.821 320.45V277.55H621.931V325H611.401L587.286 283.27H585.206L586.506 282.1V325H580.526ZM677.092 326.17C673.149 326.17 669.791 325.52 667.017 324.22C664.244 322.92 662.121 321.122 660.647 318.825C659.174 316.528 658.437 313.928 658.437 311.025H664.807C664.807 312.455 665.176 313.885 665.912 315.315C666.692 316.745 667.971 317.937 669.747 318.89C671.567 319.843 674.016 320.32 677.092 320.32C679.952 320.32 682.292 319.908 684.112 319.085C685.932 318.218 687.276 317.113 688.142 315.77C689.009 314.383 689.442 312.888 689.442 311.285C689.442 309.335 688.597 307.732 686.907 306.475C685.217 305.175 682.747 304.373 679.497 304.07L674.232 303.615C670.029 303.268 666.671 301.968 664.157 299.715C661.644 297.462 660.387 294.493 660.387 290.81C660.387 287.907 661.081 285.372 662.467 283.205C663.897 281.038 665.869 279.348 668.382 278.135C670.896 276.878 673.821 276.25 677.157 276.25C680.451 276.25 683.354 276.857 685.867 278.07C688.381 279.283 690.331 280.995 691.717 283.205C693.147 285.372 693.862 287.972 693.862 291.005H687.492C687.492 289.488 687.124 288.058 686.387 286.715C685.694 285.372 684.589 284.267 683.072 283.4C681.556 282.533 679.584 282.1 677.157 282.1C674.817 282.1 672.867 282.512 671.307 283.335C669.791 284.158 668.642 285.242 667.862 286.585C667.126 287.885 666.757 289.293 666.757 290.81C666.757 292.543 667.429 294.082 668.772 295.425C670.116 296.768 672.109 297.548 674.752 297.765L680.017 298.22C683.267 298.48 686.062 299.173 688.402 300.3C690.786 301.383 692.606 302.857 693.862 304.72C695.162 306.54 695.812 308.728 695.812 311.285C695.812 314.188 695.032 316.767 693.472 319.02C691.912 321.273 689.724 323.028 686.907 324.285C684.091 325.542 680.819 326.17 677.092 326.17ZM773.292 325V277.55H779.662V325H773.292ZM778.362 325V319.28H800.072V325H778.362ZM830.34 325L847.435 277.55H858.225L875.84 325H869.275L853.35 281.71L856.47 283.27H848.8L852.115 281.71L836.71 325H830.34ZM840.545 310.83L842.69 305.11H863.165L865.31 310.83H840.545ZM915.611 325.26V319.67H928.871C931.428 319.67 933.399 318.955 934.786 317.525C936.216 316.052 936.931 314.102 936.931 311.675C936.931 309.205 936.238 307.277 934.851 305.89C933.464 304.46 931.471 303.745 928.871 303.745H915.611V299.585H927.961C930.994 299.585 933.659 299.953 935.956 300.69C938.296 301.427 940.116 302.662 941.416 304.395C942.759 306.085 943.431 308.403 943.431 311.35V312.26C943.431 315.033 942.868 317.395 941.741 319.345C940.614 321.252 938.903 322.725 936.606 323.765C934.309 324.762 931.428 325.26 927.961 325.26H915.611ZM910.541 325.26V277.29H916.911V325.26H910.541ZM915.611 302.575V298.415H927.116C929.803 298.415 931.774 297.7 933.031 296.27C934.331 294.797 934.981 292.933 934.981 290.68C934.981 288.383 934.331 286.52 933.031 285.09C931.774 283.617 929.803 282.88 927.116 282.88H915.611V277.29H926.011C931.211 277.29 935.089 278.395 937.646 280.605C940.203 282.772 941.481 285.913 941.481 290.03V290.94C941.481 293.843 940.831 296.162 939.531 297.895C938.231 299.585 936.411 300.798 934.071 301.535C931.774 302.228 929.088 302.575 926.011 302.575H915.611Z" fill="#25262A"/>
<defs>
<linearGradient id="paint0_linear_4_128" x1="975.424" y1="1.79258e-05" x2="868.339" y2="231" gradientUnits="userSpaceOnUse">
<stop stop-color="#2BC6FF"/>
<stop offset="0.322115" stop-color="#2962FF"/>
<stop offset="0.806098" stop-color="#704EFF"/>
<stop offset="0.985577" stop-color="#6C2DFF"/>
</linearGradient>
</defs>
</svg>
