<svg width="1032" height="1032" viewBox="0 0 1032 1032" fill="none" xmlns="http://www.w3.org/2000/svg">
<g filter="url(#filter0_d_4_132)">
<rect x="4" width="1024" height="1024" rx="25" fill="#F2F4F7"/>
</g>
<path d="M486.783 391.461C450.269 458.694 413.669 525.881 377.264 593.173C332.071 676.709 287.593 760.644 241.199 843.507C235.712 853.307 220.58 862.114 209.095 863.282C180.613 866.18 151.653 864.566 122.886 864.428C98.2034 864.308 91.9418 854.026 103.832 832.349C155.757 737.684 208.246 643.327 259.945 548.539C321.133 436.354 381.702 323.832 442.576 211.475C470.571 159.804 522.052 143.825 565.727 174.644C576.988 182.59 586.995 194.414 593.546 206.62C704.722 413.766 815.289 621.239 925.91 828.683C940.242 855.559 934.814 864.313 904.353 864.371C879.694 864.418 855.009 863.747 830.387 864.703C810.733 865.468 798.99 857.073 789.931 839.893C715.693 699.104 640.864 558.626 565.053 415.624C549.452 385.842 535.014 358.49 518.687 327.56C506.73 351.508 496.756 371.485 486.783 391.461Z" fill="#0B0D19"/>
<path d="M488.589 675.256C554.923 655.354 623.1 709.901 607.599 785.907C599.422 826.003 564.276 856 523.703 858.738C483.185 861.473 444.375 836.374 430.249 798.299C415.934 759.716 428.908 714.38 462.031 689.636C469.595 683.986 478.648 680.328 488.589 675.256Z" fill="#6C2DFF"/>
<defs>
<filter id="filter0_d_4_132" x="0" y="0" width="1032" height="1032" filterUnits="userSpaceOnUse" color-interpolation-filters="sRGB">
<feFlood flood-opacity="0" result="BackgroundImageFix"/>
<feColorMatrix in="SourceAlpha" type="matrix" values="0 0 0 0 0 0 0 0 0 0 0 0 0 0 0 0 0 0 127 0" result="hardAlpha"/>
<feOffset dy="4"/>
<feGaussianBlur stdDeviation="2"/>
<feComposite in2="hardAlpha" operator="out"/>
<feColorMatrix type="matrix" values="0 0 0 0 0 0 0 0 0 0 0 0 0 0 0 0 0 0 0.25 0"/>
<feBlend mode="normal" in2="BackgroundImageFix" result="effect1_dropShadow_4_132"/>
<feBlend mode="normal" in="SourceGraphic" in2="effect1_dropShadow_4_132" result="shape"/>
</filter>
</defs>
</svg>
