<svg width="1068" height="322" viewBox="0 0 1068 322" fill="none" xmlns="http://www.w3.org/2000/svg">
<path d="M1066.66 167.05C1066.48 166.771 1066.64 166.238 1067.13 165.447C1067.31 165.724 1067.16 166.26 1066.66 167.05Z" fill="#543BF6"/>
<path d="M634.9 2.92018C635.885 2.93799 636.87 2.95578 638.788 3.35251C649.542 3.52363 659.363 3.31582 669.185 3.10801C670.17 3.06116 671.155 3.0143 673.075 3.34695C690.333 3.86366 706.656 4.02223 722.98 4.08453C723.953 4.08823 724.928 3.32033 725.903 2.91149C726.478 2.92261 727.053 2.93373 728.478 3.28027C740.554 3.78797 751.78 3.99721 763.006 4.05801C763.849 4.06257 764.698 3.00757 765.544 2.44511C766.488 2.35864 767.432 2.27216 769.017 2.69887C771.774 3.18063 773.89 3.14919 776.006 3.11774C782.869 5.2051 782.142 10.8705 780.495 15.3628C778.108 21.8741 774.734 28.1688 770.885 33.9598C766.731 40.2086 760.187 42.4734 752.615 42.4522C714.181 42.3444 675.747 42.4023 637.313 42.4206C627.425 42.4253 618.615 45.2608 612.19 53.1514C605.221 61.7111 603.71 71.3923 608.166 81.5271C613.137 92.8366 622.798 97.8393 634.501 98.0229C660.19 98.4257 685.89 98.1522 711.586 98.1222C746.705 98.0811 770.293 115.213 781.056 149.49C781.116 161.049 780.99 171.607 780.865 182.166C774.691 201.377 763.873 217.024 744.647 224.698C735.876 228.2 726.087 230.777 716.722 230.896C668.669 231.509 620.604 231.154 572.543 231.237C567.521 231.246 563.904 230.022 563.228 224.391C561.904 213.374 573.603 195.803 585.249 192.378C589.239 191.943 592.31 191.805 595.381 191.804C634.674 191.791 673.966 191.787 713.259 191.808C720.429 191.812 727.221 190.781 732.641 185.484C741.732 178.567 744.237 169.186 741.642 158.612C739.01 147.885 731.533 140.918 720.879 139.022C712.351 137.505 703.45 137.994 694.71 137.783C687.921 137.618 681.124 137.748 673.344 137.225C667.339 136.966 662.32 137.228 657.301 137.491C656.709 137.586 656.117 137.681 654.707 137.242C646.674 136.959 639.461 137.21 632.248 137.461C583.362 139.121 550.063 85.8414 572.134 41.1037C582.891 19.2984 600.295 6.3607 625.494 3.32576C629.257 3.42394 632.079 3.17206 634.9 2.92018Z" fill="#080D19"/>
<path d="M446.474 114.566C462.867 111.454 474.702 103.143 478.571 86.0264C483.521 64.1275 466.495 42.6782 443.968 42.4397C430.61 42.2983 417.25 42.3986 403.178 41.8087C399.495 41.5212 396.525 41.8153 393.556 42.1094C387.386 42.1973 381.217 42.2852 374.302 41.8029C372.719 41.5264 371.881 41.82 371.044 42.1136C359.658 42.2096 348.271 42.3056 336.034 41.7512C331.729 41.4378 328.276 41.7748 324.823 42.1119C303.83 43.427 301.53 42.4984 302.454 21.4271C302.699 15.8323 303.364 10.2559 304.63 4.36716C305.782 3.76704 306.14 3.47082 306.498 3.1746C308.761 3.1088 311.024 3.04299 314.268 3.3891C320.245 3.57476 325.242 3.3485 330.239 3.12223C330.239 3.12223 330.846 2.95914 331.672 3.1737C333.764 3.66885 335.03 4.19281 336.297 4.19456C371.493 4.24313 406.689 4.2607 441.885 4.167C443.376 4.16303 444.863 3.04513 446.352 2.44617C446.987 2.60804 447.621 2.7699 448.861 3.30483C450.606 3.49897 451.746 3.32004 452.886 3.14112C476.95 5.20389 495.449 17.1847 507.896 37.1324C537.187 84.073 511.215 142.755 459.557 152.235C459.202 152.3 458.895 152.629 457.96 153.213C465.514 161.254 472.912 169.225 480.415 177.095C494.965 192.357 509.611 207.528 524.104 222.844C525.623 224.45 526.388 226.77 527.502 228.759C525.207 229.562 522.924 231.016 520.614 231.059C508.096 231.289 495.549 231.602 483.063 230.928C478.964 230.707 474.005 228.603 471.165 225.682C449.577 203.483 428.366 180.915 407.181 158.328C404.11 155.054 400.982 153.428 396.383 153.534C379.061 153.935 361.731 153.988 343.464 154.486C342.613 156.971 342.702 159.141 342.79 161.31C342.896 181.931 343.014 202.552 343.098 223.173C343.119 228.392 340.974 231.367 335.218 231.229C326.883 231.028 318.534 231.332 310.202 231.075C308.009 231.007 305.855 229.665 303.158 228.03C302.567 224.316 302.449 221.481 302.445 218.645C302.395 187.194 302.362 155.744 302.325 124.293C304.398 121.515 306.471 118.738 309.667 116.1C355.468 116.295 400.145 116.349 444.822 116.399C445.689 116.4 446.557 116.341 447.424 116.31C447.107 115.728 446.79 115.147 446.474 114.566Z" fill="#080D19"/>
<path d="M124.693 79.4865C112.982 101.05 101.243 122.598 89.5673 144.181C75.0725 170.973 60.8075 197.893 45.9276 224.469C44.1678 227.612 39.3146 230.437 35.6311 230.812C26.4961 231.741 17.2078 231.224 7.98163 231.179C0.0652333 231.141 -1.94302 227.843 1.87048 220.891C18.5241 190.529 35.3587 160.266 51.94 129.865C71.5646 93.8848 90.9906 57.7959 110.514 21.7603C119.493 5.188 136.005 0.0629859 150.012 9.94743C153.624 12.496 156.833 16.2882 158.935 20.203C194.592 86.6402 230.053 153.182 265.532 219.715C270.129 228.335 268.388 231.142 258.618 231.161C250.71 231.176 242.793 230.961 234.896 231.268C228.592 231.513 224.826 228.82 221.92 223.31C198.11 178.155 174.111 133.101 149.796 87.2361C144.793 77.6843 140.162 68.9117 134.925 58.9916C131.09 66.6725 127.892 73.0795 124.693 79.4865Z" fill="#080D19"/>
<path d="M941.295 226.569C942.108 225.633 943.377 224.838 945.165 224.027C944.374 224.91 943.062 225.81 941.295 226.569Z" fill="#682BF4"/>
<path d="M125.272 170.507C146.547 164.124 168.413 181.619 163.442 205.996C160.819 218.855 149.547 228.476 136.534 229.354C123.539 230.232 111.092 222.182 106.561 209.97C101.97 197.595 106.131 183.055 116.754 175.119C119.18 173.307 122.084 172.133 125.272 170.507Z" fill="#6C2DFF"/>
<path d="M445.855 115.442C446.79 116.147 447.107 116.728 447.424 117.31C446.557 117.341 445.689 117.4 444.822 117.399C400.145 117.349 355.468 117.295 310.099 117.106C312.55 116.377 315.692 115.268 318.836 115.263C360.969 115.191 403.102 115.274 445.855 115.442Z" fill="#080D19"/>
<path d="M445.758 3.25313C444.863 4.04515 443.376 5.16305 441.885 5.16701C406.689 5.26072 371.493 5.24314 336.297 5.19458C335.03 5.19283 333.764 4.66886 331.986 4.1699C332.9 3.64156 334.325 3.06241 335.751 3.06098C372.221 3.02393 408.692 3.04726 445.758 3.25313Z" fill="#080D19"/>
<path d="M725.51 3.51892C724.928 4.32033 723.953 5.08823 722.98 5.08453C706.656 5.02223 690.333 4.86366 673.564 4.41727C690.452 3.78083 707.785 3.45358 725.51 3.51892Z" fill="#080D19"/>
<path d="M764.949 3.24341C764.698 4.00755 763.849 5.06256 763.006 5.05799C751.78 4.9972 740.554 4.78795 728.909 4.26441C740.445 3.62267 752.399 3.3322 764.949 3.24341Z" fill="#080D19"/>
<path d="M668.601 3.99794C659.363 4.31582 649.542 4.52364 639.275 4.42282C648.559 4.03875 658.289 3.96332 668.601 3.99794Z" fill="#080D19"/>
<path d="M632.853 138.59C639.461 138.21 646.674 137.959 654.275 138.099C647.593 138.566 640.525 138.642 632.853 138.59Z" fill="#080D19"/>
<path d="M394.121 43.2286C396.525 42.8153 399.495 42.5212 402.605 42.6805C400.059 43.2052 397.372 43.2765 394.121 43.2286Z" fill="#080D19"/>
<path d="M329.638 4.0164C325.242 4.34849 320.245 4.57476 314.829 4.47067C319.286 4.06374 324.162 3.98716 329.638 4.0164Z" fill="#080D19"/>
<path d="M634.586 3.55114C632.079 4.17205 629.257 4.42393 626.039 4.3882C628.519 3.79443 631.395 3.48827 634.586 3.55114Z" fill="#080D19"/>
<path d="M657.897 138.619C662.32 138.228 667.339 137.966 672.739 138.086C668.244 138.562 663.368 138.655 657.897 138.619Z" fill="#080D19"/>
<path d="M342.975 161.779C342.702 160.141 342.613 157.971 342.971 155.719C343.331 157.507 343.245 159.378 342.975 161.779Z" fill="#080D19"/>
<path d="M775.541 3.93272C773.89 4.1492 771.774 4.18064 769.476 3.83253C771.221 3.55121 773.149 3.64945 775.541 3.93272Z" fill="#080D19"/>
<path d="M325.417 43.2283C328.276 42.7748 331.729 42.4378 335.442 42.6236C332.471 43.2126 329.241 43.2786 325.417 43.2283Z" fill="#080D19"/>
<path d="M452.398 4.02855C451.746 4.32006 450.606 4.49899 449.197 4.39978C449.922 4.05308 450.916 3.98452 452.398 4.02855Z" fill="#080D19"/>
<path d="M371.513 43.228C371.881 42.82 372.719 42.5264 373.722 42.6729C373.253 43.1895 372.618 43.2659 371.513 43.228Z" fill="#080D19"/>
<path d="M306.12 4.1142C306.14 4.47084 305.782 4.76706 305.071 5.08312C305.059 4.75322 305.401 4.4035 306.12 4.1142Z" fill="#080D19"/>
<path d="M878.861 147.373C878.546 147.391 878.23 147.052 877.946 146.352C878.272 146.332 878.565 146.673 878.861 147.373Z" fill="#4B4BF8"/>
<circle cx="921.881" cy="115.5" r="97" stroke="url(#paint0_linear_9_3)" stroke-width="37"/>
<rect x="914.381" y="194" width="15" height="37" fill="#FDFDFE"/>
<rect x="914.381" width="15" height="39" fill="#FDFDFE"/>
<path d="M218.583 308.864C215.671 308.864 213.191 308.384 211.143 307.424C209.095 306.464 207.527 305.136 206.439 303.44C205.351 301.744 204.807 299.824 204.807 297.68H209.511C209.511 298.736 209.783 299.792 210.327 300.848C210.903 301.904 211.847 302.784 213.159 303.488C214.503 304.192 216.311 304.544 218.583 304.544C220.695 304.544 222.423 304.24 223.767 303.632C225.111 302.992 226.103 302.176 226.743 301.184C227.383 300.16 227.703 299.056 227.703 297.872C227.703 296.432 227.079 295.248 225.831 294.32C224.583 293.36 222.759 292.768 220.359 292.544L216.471 292.208C213.367 291.952 210.887 290.992 209.031 289.328C207.175 287.664 206.247 285.472 206.247 282.752C206.247 280.608 206.759 278.736 207.783 277.136C208.839 275.536 210.295 274.288 212.151 273.392C214.007 272.464 216.167 272 218.631 272C221.063 272 223.207 272.448 225.063 273.344C226.919 274.24 228.359 275.504 229.383 277.136C230.439 278.736 230.967 280.656 230.967 282.896H226.263C226.263 281.776 225.991 280.72 225.447 279.728C224.935 278.736 224.119 277.92 222.999 277.28C221.879 276.64 220.423 276.32 218.631 276.32C216.903 276.32 215.463 276.624 214.311 277.232C213.191 277.84 212.343 278.64 211.767 279.632C211.223 280.592 210.951 281.632 210.951 282.752C210.951 284.032 211.447 285.168 212.439 286.16C213.431 287.152 214.903 287.728 216.855 287.888L220.743 288.224C223.143 288.416 225.207 288.928 226.935 289.76C228.695 290.56 230.039 291.648 230.967 293.024C231.927 294.368 232.407 295.984 232.407 297.872C232.407 300.016 231.831 301.92 230.679 303.584C229.527 305.248 227.911 306.544 225.831 307.472C223.751 308.4 221.335 308.864 218.583 308.864ZM275.197 308.864C272.061 308.864 269.357 308.304 267.085 307.184C264.813 306.064 262.941 304.592 261.469 302.768C259.997 300.944 258.893 298.992 258.157 296.912C257.453 294.832 257.101 292.832 257.101 290.912V289.856C257.101 287.776 257.469 285.68 258.205 283.568C258.941 281.456 260.061 279.536 261.565 277.808C263.069 276.048 264.941 274.64 267.181 273.584C269.453 272.528 272.125 272 275.197 272C278.269 272 280.925 272.528 283.165 273.584C285.437 274.64 287.325 276.048 288.829 277.808C290.333 279.536 291.453 281.456 292.189 283.568C292.925 285.68 293.293 287.776 293.293 289.856V290.912C293.293 292.832 292.925 294.832 292.189 296.912C291.485 298.992 290.397 300.944 288.925 302.768C287.453 304.592 285.581 306.064 283.309 307.184C281.037 308.304 278.333 308.864 275.197 308.864ZM275.197 304.544C277.245 304.544 279.085 304.16 280.717 303.392C282.381 302.624 283.789 301.584 284.941 300.272C286.093 298.928 286.973 297.424 287.581 295.76C288.189 294.064 288.493 292.288 288.493 290.432C288.493 288.48 288.189 286.656 287.581 284.96C286.973 283.264 286.093 281.776 284.941 280.496C283.789 279.184 282.381 278.16 280.717 277.424C279.085 276.688 277.245 276.32 275.197 276.32C273.149 276.32 271.293 276.688 269.629 277.424C267.997 278.16 266.605 279.184 265.453 280.496C264.301 281.776 263.421 283.264 262.813 284.96C262.205 286.656 261.901 288.48 261.901 290.432C261.901 292.288 262.205 294.064 262.813 295.76C263.421 297.424 264.301 298.928 265.453 300.272C266.605 301.584 267.997 302.624 269.629 303.392C271.293 304.16 273.149 304.544 275.197 304.544ZM320.232 308V272.96H324.936V308H320.232ZM323.976 308V303.776H340.008V308H323.976ZM378.569 308.864C375.401 308.864 372.729 308.256 370.553 307.04C368.409 305.792 366.777 304.064 365.657 301.856C364.569 299.616 364.025 297.024 364.025 294.08V272.96H368.729V294.656C368.729 296.608 369.097 298.336 369.833 299.84C370.601 301.312 371.721 302.464 373.193 303.296C374.665 304.128 376.457 304.544 378.569 304.544C380.681 304.544 382.457 304.144 383.897 303.344C385.369 302.512 386.473 301.36 387.209 299.888C387.977 298.384 388.361 296.64 388.361 294.656V272.96H393.065V294.08C393.065 297.024 392.521 299.616 391.433 301.856C390.345 304.064 388.729 305.792 386.585 307.04C384.441 308.256 381.769 308.864 378.569 308.864ZM428.495 308V276.224H433.199V308H428.495ZM417.839 277.184V272.96H443.855V277.184H417.839ZM469.475 308V272.96H474.179V308H469.475ZM519.368 308.864C516.232 308.864 513.528 308.304 511.256 307.184C508.984 306.064 507.112 304.592 505.64 302.768C504.168 300.944 503.064 298.992 502.328 296.912C501.624 294.832 501.272 292.832 501.272 290.912V289.856C501.272 287.776 501.64 285.68 502.376 283.568C503.112 281.456 504.232 279.536 505.736 277.808C507.24 276.048 509.112 274.64 511.352 273.584C513.624 272.528 516.296 272 519.368 272C522.44 272 525.096 272.528 527.336 273.584C529.608 274.64 531.496 276.048 533 277.808C534.504 279.536 535.624 281.456 536.36 283.568C537.096 285.68 537.464 287.776 537.464 289.856V290.912C537.464 292.832 537.096 294.832 536.36 296.912C535.656 298.992 534.568 300.944 533.096 302.768C531.624 304.592 529.752 306.064 527.48 307.184C525.208 308.304 522.504 308.864 519.368 308.864ZM519.368 304.544C521.416 304.544 523.256 304.16 524.888 303.392C526.552 302.624 527.96 301.584 529.112 300.272C530.264 298.928 531.144 297.424 531.752 295.76C532.36 294.064 532.664 292.288 532.664 290.432C532.664 288.48 532.36 286.656 531.752 284.96C531.144 283.264 530.264 281.776 529.112 280.496C527.96 279.184 526.552 278.16 524.888 277.424C523.256 276.688 521.416 276.32 519.368 276.32C517.32 276.32 515.464 276.688 513.8 277.424C512.168 278.16 510.776 279.184 509.624 280.496C508.472 281.776 507.592 283.264 506.984 284.96C506.376 286.656 506.072 288.48 506.072 290.432C506.072 292.288 506.376 294.064 506.984 295.76C507.592 297.424 508.472 298.928 509.624 300.272C510.776 301.584 512.168 302.624 513.8 303.392C515.464 304.16 517.32 304.544 519.368 304.544ZM564.404 308V272.96H572.084L589.892 303.776H591.428L590.468 304.64V272.96H594.98V308H587.204L569.396 277.184H567.86L568.82 276.32V308H564.404ZM635.714 308.864C632.802 308.864 630.322 308.384 628.274 307.424C626.226 306.464 624.658 305.136 623.57 303.44C622.482 301.744 621.938 299.824 621.938 297.68H626.642C626.642 298.736 626.914 299.792 627.458 300.848C628.034 301.904 628.978 302.784 630.29 303.488C631.634 304.192 633.442 304.544 635.714 304.544C637.826 304.544 639.554 304.24 640.898 303.632C642.242 302.992 643.234 302.176 643.874 301.184C644.514 300.16 644.834 299.056 644.834 297.872C644.834 296.432 644.21 295.248 642.962 294.32C641.714 293.36 639.89 292.768 637.49 292.544L633.602 292.208C630.498 291.952 628.018 290.992 626.162 289.328C624.306 287.664 623.378 285.472 623.378 282.752C623.378 280.608 623.89 278.736 624.914 277.136C625.97 275.536 627.426 274.288 629.282 273.392C631.138 272.464 633.298 272 635.762 272C638.194 272 640.338 272.448 642.194 273.344C644.05 274.24 645.49 275.504 646.514 277.136C647.57 278.736 648.098 280.656 648.098 282.896H643.394C643.394 281.776 643.122 280.72 642.578 279.728C642.066 278.736 641.25 277.92 640.13 277.28C639.01 276.64 637.554 276.32 635.762 276.32C634.034 276.32 632.594 276.624 631.442 277.232C630.322 277.84 629.474 278.64 628.898 279.632C628.354 280.592 628.082 281.632 628.082 282.752C628.082 284.032 628.578 285.168 629.57 286.16C630.562 287.152 632.034 287.728 633.986 287.888L637.874 288.224C640.274 288.416 642.338 288.928 644.066 289.76C645.826 290.56 647.17 291.648 648.098 293.024C649.058 294.368 649.538 295.984 649.538 297.872C649.538 300.016 648.962 301.92 647.81 303.584C646.658 305.248 645.042 306.544 642.962 307.472C640.882 308.4 638.466 308.864 635.714 308.864ZM706.754 308V272.96H711.458V308H706.754ZM710.498 308V303.776H726.53V308H710.498ZM748.882 308L761.506 272.96H769.474L782.482 308H777.634L765.874 276.032L768.178 277.184H762.514L764.962 276.032L753.586 308H748.882ZM756.418 297.536L758.002 293.312H773.122L774.706 297.536H756.418ZM811.851 308.192V304.064H821.643C823.531 304.064 824.987 303.536 826.011 302.48C827.067 301.392 827.595 299.952 827.595 298.16C827.595 296.336 827.083 294.912 826.059 293.888C825.035 292.832 823.563 292.304 821.643 292.304H811.851V289.232H820.971C823.211 289.232 825.179 289.504 826.875 290.048C828.603 290.592 829.947 291.504 830.907 292.784C831.899 294.032 832.395 295.744 832.395 297.92V298.592C832.395 300.64 831.979 302.384 831.147 303.824C830.315 305.232 829.051 306.32 827.355 307.088C825.659 307.824 823.531 308.192 820.971 308.192H811.851ZM808.107 308.192V272.768H812.811V308.192H808.107ZM811.851 291.44V288.368H820.347C822.331 288.368 823.787 287.84 824.715 286.784C825.675 285.696 826.155 284.32 826.155 282.656C826.155 280.96 825.675 279.584 824.715 278.528C823.787 277.44 822.331 276.896 820.347 276.896H811.851V272.768H819.531C823.371 272.768 826.235 273.584 828.123 275.216C830.011 276.816 830.955 279.136 830.955 282.176V282.848C830.955 284.992 830.475 286.704 829.515 287.984C828.555 289.232 827.211 290.128 825.483 290.672C823.787 291.184 821.803 291.44 819.531 291.44H811.851Z" fill="#737477"/>
<defs>
<linearGradient id="paint0_linear_9_3" x1="975.424" y1="1.79258e-05" x2="868.339" y2="231" gradientUnits="userSpaceOnUse">
<stop stop-color="#2BC6FF"/>
<stop offset="0.322115" stop-color="#2962FF"/>
<stop offset="0.806098" stop-color="#704EFF"/>
<stop offset="0.985577" stop-color="#6C2DFF"/>
</linearGradient>
</defs>
</svg>
