<svg width="1068" height="232" viewBox="0 0 1068 232" fill="none" xmlns="http://www.w3.org/2000/svg">
<path d="M1066.66 167.05C1066.48 166.771 1066.64 166.238 1067.13 165.447C1067.31 165.724 1067.16 166.26 1066.66 167.05Z" fill="#543BF6"/>
<path d="M445.758 3.25313C444.863 4.04515 443.376 5.16305 441.885 5.16701C406.689 5.26072 371.493 5.24314 336.297 5.19458C335.03 5.19283 333.764 4.66886 331.986 4.1699C332.9 3.64156 334.325 3.06241 335.751 3.06098C372.221 3.02393 408.692 3.04726 445.758 3.25313Z" fill="#080D19"/>
<path d="M725.51 3.51892C724.928 4.32033 723.953 5.08823 722.98 5.08453C706.656 5.02223 690.333 4.86366 673.564 4.41727C690.452 3.78083 707.785 3.45358 725.51 3.51892Z" fill="#080D19"/>
<path d="M764.949 3.24341C764.698 4.00755 763.849 5.06256 763.006 5.05799C751.78 4.9972 740.554 4.78795 728.909 4.26441C740.445 3.62267 752.399 3.3322 764.949 3.24341Z" fill="#080D19"/>
<path d="M668.601 3.99794C659.363 4.31582 649.542 4.52364 639.275 4.42282C648.559 4.03875 658.289 3.96332 668.601 3.99794Z" fill="#080D19"/>
<path d="M394.121 43.2286C396.525 42.8153 399.495 42.5212 402.605 42.6805C400.059 43.2052 397.372 43.2765 394.121 43.2286Z" fill="#080D19"/>
<path d="M329.638 4.0164C325.242 4.34849 320.245 4.57476 314.829 4.47067C319.286 4.06374 324.162 3.98716 329.638 4.0164Z" fill="#080D19"/>
<path d="M634.586 3.55114C632.079 4.17205 629.257 4.42393 626.039 4.3882C628.519 3.79443 631.395 3.48827 634.586 3.55114Z" fill="#080D19"/>
<path d="M775.541 3.93272C773.89 4.1492 771.774 4.18064 769.476 3.83253C771.221 3.55121 773.149 3.64945 775.541 3.93272Z" fill="#080D19"/>
<path d="M325.417 43.2283C328.276 42.7748 331.729 42.4378 335.442 42.6236C332.471 43.2126 329.241 43.2786 325.417 43.2283Z" fill="#080D19"/>
<path d="M452.398 4.02855C451.746 4.32006 450.606 4.49899 449.197 4.39978C449.922 4.05308 450.916 3.98452 452.398 4.02855Z" fill="#080D19"/>
<path d="M371.513 43.228C371.881 42.82 372.719 42.5264 373.722 42.6729C373.253 43.1895 372.618 43.2659 371.513 43.228Z" fill="#080D19"/>
<path d="M306.12 4.1142C306.14 4.47084 305.782 4.76706 305.071 5.08312C305.059 4.75322 305.401 4.4035 306.12 4.1142Z" fill="#080D19"/>
<path d="M634.9 2.92018C635.885 2.93799 636.87 2.95578 638.788 3.35251C649.542 3.52363 659.363 3.31582 669.185 3.10801C670.17 3.06116 671.155 3.0143 673.075 3.34695C690.333 3.86366 706.656 4.02223 722.98 4.08453C723.953 4.08823 724.928 3.32033 725.903 2.91149C726.478 2.92261 727.053 2.93373 728.478 3.28027C740.554 3.78797 751.78 3.99721 763.006 4.05801C763.849 4.06257 764.698 3.00757 765.544 2.44511C766.488 2.35864 767.432 2.27216 769.017 2.69887C771.774 3.18063 773.89 3.14919 776.006 3.11774C782.869 5.2051 782.142 10.8705 780.495 15.3628C778.108 21.8741 774.734 28.1688 770.885 33.9598C766.731 40.2086 760.187 42.4734 752.615 42.4522C714.181 42.3444 675.747 42.4023 637.313 42.4206C627.425 42.4253 618.615 45.2608 612.19 53.1514C605.221 61.7111 603.71 71.3923 608.166 81.5271C613.137 92.8366 622.798 97.8393 634.501 98.0229C660.19 98.4257 685.89 98.1522 711.586 98.1222C746.705 98.0811 770.293 115.213 781.056 149.49C781.116 161.049 780.99 171.607 780.865 182.166C774.691 201.377 763.873 217.024 744.647 224.698C735.876 228.2 726.087 230.777 716.722 230.896C668.669 231.509 620.604 231.154 572.543 231.237C567.521 231.246 563.904 230.022 563.228 224.391C561.904 213.374 573.603 195.803 585.249 192.378C589.239 191.943 592.31 191.805 595.381 191.804C634.674 191.791 673.966 191.787 713.259 191.808C720.429 191.812 727.221 190.781 732.641 185.484C741.732 178.567 744.237 169.186 741.642 158.612C739.01 147.885 731.533 140.918 720.879 139.022C712.351 137.505 703.45 137.994 694.71 137.783C687.921 137.618 681.124 137.748 673.344 137.225C667.339 136.966 662.32 137.228 657.301 137.491C656.709 137.586 656.117 137.681 654.707 137.242C646.674 136.959 639.461 137.21 632.248 137.461C583.362 139.121 550.063 85.8414 572.134 41.1037C582.891 19.2984 600.295 6.3607 625.494 3.32576C629.257 3.42394 632.079 3.17206 634.9 2.92018Z" fill="#080D19"/>
<path d="M446.474 114.566C462.867 111.454 474.702 103.143 478.571 86.0264C483.521 64.1275 466.495 42.6782 443.968 42.4397C430.61 42.2983 417.25 42.3986 403.178 41.8087C399.495 41.5212 396.525 41.8153 393.556 42.1094C387.386 42.1973 381.217 42.2852 374.302 41.8029C372.719 41.5264 371.881 41.82 371.044 42.1136C359.658 42.2096 348.271 42.3056 336.034 41.7512C331.729 41.4378 328.276 41.7748 324.823 42.1119C303.83 43.427 301.53 42.4984 302.454 21.4271C302.699 15.8323 303.364 10.2559 304.63 4.36716C305.782 3.76704 306.14 3.47082 306.498 3.1746C308.761 3.1088 311.024 3.04299 314.268 3.3891C320.245 3.57476 325.242 3.3485 330.239 3.12223C330.239 3.12223 330.846 2.95914 331.672 3.1737C333.764 3.66885 335.03 4.19281 336.297 4.19456C371.493 4.24313 406.689 4.2607 441.885 4.167C443.376 4.16303 444.863 3.04513 446.352 2.44617C446.987 2.60804 447.621 2.7699 448.861 3.30483C450.606 3.49897 451.746 3.32004 452.886 3.14112C476.95 5.20389 495.449 17.1847 507.896 37.1324C537.187 84.073 511.215 142.755 459.557 152.235C459.202 152.3 458.895 152.629 457.96 153.213C465.514 161.254 472.912 169.225 480.415 177.095C494.965 192.357 509.611 207.528 524.104 222.844C525.623 224.45 526.388 226.77 527.502 228.759C525.207 229.562 522.924 231.016 520.614 231.059C508.096 231.289 495.549 231.602 483.063 230.928C478.964 230.707 474.005 228.603 471.165 225.682C449.577 203.483 428.366 180.915 407.181 158.328C404.11 155.054 400.982 153.428 396.383 153.534C379.061 153.935 361.731 153.988 343.464 154.486C342.613 156.971 342.702 159.141 342.79 161.31C342.896 181.931 343.014 202.552 343.098 223.173C343.119 228.392 340.974 231.367 335.218 231.229C326.883 231.028 318.534 231.332 310.202 231.075C308.009 231.007 305.855 229.665 303.158 228.03C302.567 224.316 302.449 221.481 302.445 218.645C302.395 187.194 302.362 155.744 302.325 124.293C304.398 121.515 306.471 118.738 309.667 116.1C355.468 116.295 400.145 116.349 444.822 116.399C445.689 116.4 446.557 116.341 447.424 116.31C447.107 115.728 446.79 115.147 446.474 114.566Z" fill="#080D19"/>
<path d="M124.693 79.4865C112.982 101.05 101.243 122.598 89.5673 144.181C75.0725 170.973 60.8075 197.893 45.9276 224.469C44.1678 227.612 39.3146 230.437 35.6311 230.812C26.4961 231.741 17.2078 231.224 7.98163 231.179C0.0652333 231.141 -1.94302 227.843 1.87048 220.891C18.5241 190.529 35.3587 160.266 51.94 129.865C71.5646 93.8848 90.9906 57.7959 110.514 21.7603C119.493 5.188 136.005 0.0629859 150.012 9.94743C153.624 12.496 156.833 16.2882 158.935 20.203C194.592 86.6402 230.053 153.182 265.532 219.715C270.129 228.335 268.388 231.142 258.618 231.161C250.71 231.176 242.793 230.961 234.896 231.268C228.592 231.513 224.826 228.82 221.92 223.31C198.11 178.155 174.111 133.101 149.796 87.2361C144.793 77.6843 140.162 68.9117 134.925 58.9916C131.09 66.6725 127.892 73.0795 124.693 79.4865Z" fill="#080D19"/>
<path d="M941.295 226.569C942.108 225.633 943.377 224.838 945.165 224.027C944.374 224.91 943.062 225.81 941.295 226.569Z" fill="#682BF4"/>
<path d="M125.272 170.507C146.547 164.124 168.413 181.619 163.442 205.996C160.819 218.855 149.547 228.476 136.534 229.354C123.539 230.232 111.092 222.182 106.561 209.97C101.97 197.595 106.131 183.055 116.754 175.119C119.18 173.307 122.084 172.133 125.272 170.507Z" fill="#6C2DFF"/>
<path d="M445.855 115.442C446.79 116.147 447.107 116.728 447.424 117.31C446.557 117.341 445.689 117.4 444.822 117.399C400.145 117.349 355.468 117.295 310.099 117.106C312.55 116.377 315.692 115.268 318.836 115.263C360.969 115.191 403.102 115.274 445.855 115.442Z" fill="#080D19"/>
<path d="M632.853 138.59C639.461 138.21 646.674 137.959 654.275 138.099C647.593 138.566 640.525 138.642 632.853 138.59Z" fill="#080D19"/>
<path d="M657.897 138.619C662.32 138.228 667.339 137.966 672.739 138.086C668.244 138.562 663.368 138.655 657.897 138.619Z" fill="#080D19"/>
<path d="M342.975 161.779C342.702 160.141 342.613 157.971 342.971 155.719C343.331 157.507 343.245 159.378 342.975 161.779Z" fill="#080D19"/>
<circle cx="921.881" cy="115.5" r="97" stroke="url(#paint0_linear_4_127)" stroke-width="37"/>
<rect x="914.381" width="15" height="39" fill="#FDFDFE"/>
<rect x="914.381" y="194" width="15" height="37" fill="#FDFDFE"/>
<defs>
<linearGradient id="paint0_linear_4_127" x1="975.424" y1="1.79258e-05" x2="868.339" y2="231" gradientUnits="userSpaceOnUse">
<stop stop-color="#2BC6FF"/>
<stop offset="0.322115" stop-color="#2962FF"/>
<stop offset="0.806098" stop-color="#704EFF"/>
<stop offset="0.985577" stop-color="#6C2DFF"/>
</linearGradient>
</defs>
</svg>
