<svg width="1068" height="330" viewBox="0 0 1068 330" fill="none" xmlns="http://www.w3.org/2000/svg">
<path d="M1066.66 167.05C1066.48 166.771 1066.64 166.238 1067.13 165.447C1067.31 165.724 1067.16 166.26 1066.66 167.05Z" fill="#543BF6"/>
<path d="M634.9 2.92018C635.885 2.93799 636.87 2.95578 638.788 3.35251C649.542 3.52363 659.363 3.31582 669.185 3.10801C670.17 3.06116 671.155 3.0143 673.075 3.34695C690.333 3.86366 706.656 4.02223 722.98 4.08453C723.953 4.08823 724.928 3.32033 725.903 2.91149C726.478 2.92261 727.053 2.93373 728.478 3.28027C740.554 3.78797 751.78 3.99721 763.006 4.05801C763.849 4.06257 764.698 3.00757 765.544 2.44511C766.488 2.35864 767.432 2.27216 769.017 2.69887C771.774 3.18063 773.89 3.14919 776.006 3.11774C782.869 5.2051 782.142 10.8705 780.495 15.3628C778.108 21.8741 774.734 28.1688 770.885 33.9598C766.731 40.2086 760.187 42.4734 752.615 42.4522C714.181 42.3444 675.747 42.4023 637.313 42.4206C627.425 42.4253 618.615 45.2608 612.19 53.1514C605.221 61.7111 603.71 71.3923 608.166 81.5271C613.137 92.8366 622.798 97.8393 634.501 98.0229C660.19 98.4257 685.89 98.1522 711.586 98.1222C746.705 98.0811 770.293 115.213 781.056 149.49C781.116 161.049 780.99 171.607 780.865 182.166C774.691 201.377 763.873 217.024 744.647 224.698C735.876 228.2 726.087 230.777 716.722 230.896C668.669 231.509 620.604 231.154 572.543 231.237C567.521 231.246 563.904 230.022 563.228 224.391C561.904 213.374 573.603 195.803 585.249 192.378C589.239 191.943 592.31 191.805 595.381 191.804C634.674 191.791 673.966 191.787 713.259 191.808C720.429 191.812 727.221 190.781 732.641 185.484C741.732 178.567 744.237 169.186 741.642 158.612C739.01 147.885 731.533 140.918 720.879 139.022C712.351 137.505 703.45 137.994 694.71 137.783C687.921 137.618 681.124 137.748 673.344 137.225C667.339 136.966 662.32 137.228 657.301 137.491C656.709 137.586 656.117 137.681 654.707 137.242C646.674 136.959 639.461 137.21 632.248 137.461C583.362 139.121 550.063 85.8414 572.134 41.1037C582.891 19.2984 600.295 6.3607 625.494 3.32576C629.257 3.42394 632.079 3.17206 634.9 2.92018Z" fill="#F2F4F7"/>
<path d="M446.474 114.566C462.867 111.454 474.702 103.143 478.571 86.0264C483.521 64.1275 466.495 42.6782 443.968 42.4397C430.61 42.2983 417.25 42.3986 403.178 41.8087C399.495 41.5212 396.525 41.8153 393.556 42.1094C387.386 42.1973 381.217 42.2852 374.302 41.8029C372.719 41.5264 371.881 41.82 371.044 42.1136C359.658 42.2096 348.271 42.3056 336.034 41.7512C331.729 41.4378 328.276 41.7748 324.823 42.1119C303.83 43.427 301.53 42.4984 302.454 21.4271C302.699 15.8323 303.364 10.2559 304.63 4.36716C305.782 3.76704 306.14 3.47082 306.498 3.1746C308.761 3.1088 311.024 3.04299 314.268 3.3891C320.245 3.57476 325.242 3.3485 330.239 3.12223C330.239 3.12223 330.846 2.95914 331.672 3.1737C333.764 3.66885 335.03 4.19281 336.297 4.19456C371.493 4.24313 406.689 4.2607 441.885 4.167C443.376 4.16303 444.863 3.04513 446.352 2.44617C446.987 2.60804 447.621 2.7699 448.861 3.30483C450.606 3.49897 451.746 3.32004 452.886 3.14112C476.95 5.20389 495.449 17.1847 507.896 37.1324C537.187 84.073 511.215 142.755 459.557 152.235C459.202 152.3 458.895 152.629 457.96 153.213C465.514 161.254 472.912 169.225 480.415 177.095C494.965 192.357 509.611 207.528 524.104 222.844C525.623 224.45 526.388 226.77 527.502 228.759C525.207 229.562 522.924 231.016 520.614 231.059C508.096 231.289 495.549 231.602 483.063 230.928C478.964 230.707 474.005 228.603 471.165 225.682C449.577 203.483 428.366 180.915 407.181 158.328C404.11 155.054 400.982 153.428 396.383 153.534C379.061 153.935 361.731 153.988 343.464 154.486C342.613 156.971 342.702 159.141 342.79 161.31C342.896 181.931 343.014 202.552 343.098 223.173C343.119 228.392 340.974 231.367 335.218 231.229C326.883 231.028 318.534 231.332 310.202 231.075C308.009 231.007 305.855 229.665 303.158 228.03C302.567 224.316 302.449 221.481 302.445 218.645C302.395 187.194 302.362 155.744 302.325 124.293C304.398 121.515 306.471 118.738 309.667 116.1C355.468 116.295 400.145 116.349 444.822 116.399C445.689 116.4 446.557 116.341 447.424 116.31C447.107 115.728 446.79 115.147 446.474 114.566Z" fill="#F2F4F7"/>
<path d="M124.693 79.4865C112.982 101.05 101.243 122.598 89.5673 144.181C75.0725 170.973 60.8075 197.893 45.9276 224.469C44.1678 227.612 39.3146 230.437 35.6311 230.812C26.4961 231.741 17.2078 231.224 7.98163 231.179C0.0652333 231.141 -1.94302 227.843 1.87048 220.891C18.5241 190.529 35.3587 160.266 51.94 129.865C71.5646 93.8848 90.9906 57.7959 110.514 21.7603C119.493 5.188 136.005 0.0629859 150.012 9.94743C153.624 12.496 156.833 16.2882 158.935 20.203C194.592 86.6402 230.053 153.182 265.532 219.715C270.129 228.335 268.388 231.142 258.618 231.161C250.71 231.176 242.793 230.961 234.896 231.268C228.592 231.513 224.826 228.82 221.92 223.31C198.11 178.155 174.111 133.101 149.796 87.2361C144.793 77.6843 140.162 68.9117 134.925 58.9916C131.09 66.6725 127.892 73.0795 124.693 79.4865Z" fill="#F2F4F7"/>
<path d="M941.295 226.569C942.108 225.633 943.377 224.838 945.165 224.027C944.374 224.91 943.062 225.81 941.295 226.569Z" fill="#682BF4"/>
<path d="M125.272 170.507C146.547 164.124 168.413 181.619 163.442 205.996C160.819 218.855 149.547 228.476 136.534 229.354C123.539 230.232 111.092 222.182 106.561 209.97C101.97 197.595 106.131 183.055 116.754 175.119C119.18 173.307 122.084 172.133 125.272 170.507Z" fill="#6C2DFF"/>
<path d="M445.855 115.442C446.79 116.147 447.107 116.728 447.424 117.31C446.557 117.341 445.689 117.4 444.822 117.399C400.145 117.349 355.468 117.295 310.099 117.106C312.55 116.377 315.692 115.268 318.836 115.263C360.969 115.191 403.102 115.274 445.855 115.442Z" fill="#F2F4F7"/>
<path d="M445.758 3.25313C444.863 4.04515 443.376 5.16305 441.885 5.16701C406.689 5.26072 371.493 5.24314 336.297 5.19458C335.03 5.19283 333.764 4.66886 331.986 4.1699C332.9 3.64156 334.325 3.06241 335.751 3.06098C372.221 3.02393 408.692 3.04726 445.758 3.25313Z" fill="#F2F4F7"/>
<path d="M725.51 3.51892C724.928 4.32033 723.953 5.08823 722.98 5.08453C706.656 5.02223 690.333 4.86366 673.564 4.41727C690.452 3.78083 707.785 3.45358 725.51 3.51892Z" fill="#F2F4F7"/>
<path d="M764.949 3.24341C764.698 4.00755 763.849 5.06256 763.006 5.05799C751.78 4.9972 740.554 4.78795 728.909 4.26441C740.445 3.62267 752.399 3.3322 764.949 3.24341Z" fill="#F2F4F7"/>
<path d="M668.601 3.99794C659.363 4.31582 649.542 4.52364 639.275 4.42282C648.559 4.03875 658.289 3.96332 668.601 3.99794Z" fill="#F2F4F7"/>
<path d="M632.853 138.59C639.461 138.21 646.674 137.959 654.275 138.099C647.593 138.566 640.525 138.642 632.853 138.59Z" fill="#F2F4F7"/>
<path d="M394.121 43.2286C396.525 42.8153 399.495 42.5212 402.605 42.6805C400.059 43.2052 397.372 43.2765 394.121 43.2286Z" fill="#F2F4F7"/>
<path d="M329.638 4.0164C325.242 4.34849 320.245 4.57476 314.829 4.47067C319.286 4.06374 324.162 3.98716 329.638 4.0164Z" fill="#F2F4F7"/>
<path d="M634.586 3.55114C632.079 4.17205 629.257 4.42393 626.039 4.3882C628.519 3.79443 631.395 3.48827 634.586 3.55114Z" fill="#F2F4F7"/>
<path d="M657.897 138.619C662.32 138.228 667.339 137.966 672.739 138.086C668.244 138.562 663.368 138.655 657.897 138.619Z" fill="#F2F4F7"/>
<path d="M342.975 161.779C342.702 160.141 342.613 157.971 342.971 155.719C343.331 157.507 343.245 159.378 342.975 161.779Z" fill="#F2F4F7"/>
<path d="M775.541 3.93272C773.89 4.1492 771.774 4.18064 769.476 3.83253C771.221 3.55121 773.149 3.64945 775.541 3.93272Z" fill="#F2F4F7"/>
<path d="M325.417 43.2283C328.276 42.7748 331.729 42.4378 335.442 42.6236C332.471 43.2126 329.241 43.2786 325.417 43.2283Z" fill="#F2F4F7"/>
<path d="M452.398 4.02855C451.746 4.32006 450.606 4.49899 449.197 4.39978C449.922 4.05308 450.916 3.98452 452.398 4.02855Z" fill="#F2F4F7"/>
<path d="M371.513 43.228C371.881 42.82 372.719 42.5264 373.722 42.6729C373.253 43.1895 372.618 43.2659 371.513 43.228Z" fill="#F2F4F7"/>
<path d="M306.12 4.1142C306.14 4.47084 305.782 4.76706 305.071 5.08312C305.059 4.75322 305.401 4.4035 306.12 4.1142Z" fill="#F2F4F7"/>
<path d="M878.861 147.373C878.546 147.391 878.23 147.052 877.946 146.352C878.272 146.332 878.565 146.673 878.861 147.373Z" fill="#4B4BF8"/>
<circle cx="921.881" cy="115.5" r="97" stroke="url(#paint0_linear_9_2)" stroke-width="37"/>
<rect x="914.381" y="194" width="15" height="37" fill="#25262A"/>
<rect x="914.881" y="0.5" width="14" height="38" fill="#25262A" stroke="#25262A"/>
<path d="M221.083 308.864C218.171 308.864 215.691 308.384 213.643 307.424C211.595 306.464 210.027 305.136 208.939 303.44C207.851 301.744 207.307 299.824 207.307 297.68H212.011C212.011 298.736 212.283 299.792 212.827 300.848C213.403 301.904 214.347 302.784 215.659 303.488C217.003 304.192 218.811 304.544 221.083 304.544C223.195 304.544 224.923 304.24 226.267 303.632C227.611 302.992 228.603 302.176 229.243 301.184C229.883 300.16 230.203 299.056 230.203 297.872C230.203 296.432 229.579 295.248 228.331 294.32C227.083 293.36 225.259 292.768 222.859 292.544L218.971 292.208C215.867 291.952 213.387 290.992 211.531 289.328C209.675 287.664 208.747 285.472 208.747 282.752C208.747 280.608 209.259 278.736 210.283 277.136C211.339 275.536 212.795 274.288 214.651 273.392C216.507 272.464 218.667 272 221.131 272C223.563 272 225.707 272.448 227.563 273.344C229.419 274.24 230.859 275.504 231.883 277.136C232.939 278.736 233.467 280.656 233.467 282.896H228.763C228.763 281.776 228.491 280.72 227.947 279.728C227.435 278.736 226.619 277.92 225.499 277.28C224.379 276.64 222.923 276.32 221.131 276.32C219.403 276.32 217.963 276.624 216.811 277.232C215.691 277.84 214.843 278.64 214.267 279.632C213.723 280.592 213.451 281.632 213.451 282.752C213.451 284.032 213.947 285.168 214.939 286.16C215.931 287.152 217.403 287.728 219.355 287.888L223.243 288.224C225.643 288.416 227.707 288.928 229.435 289.76C231.195 290.56 232.539 291.648 233.467 293.024C234.427 294.368 234.907 295.984 234.907 297.872C234.907 300.016 234.331 301.92 233.179 303.584C232.027 305.248 230.411 306.544 228.331 307.472C226.251 308.4 223.835 308.864 221.083 308.864ZM277.697 308.864C274.561 308.864 271.857 308.304 269.585 307.184C267.313 306.064 265.441 304.592 263.969 302.768C262.497 300.944 261.393 298.992 260.657 296.912C259.953 294.832 259.601 292.832 259.601 290.912V289.856C259.601 287.776 259.969 285.68 260.705 283.568C261.441 281.456 262.561 279.536 264.065 277.808C265.569 276.048 267.441 274.64 269.681 273.584C271.953 272.528 274.625 272 277.697 272C280.769 272 283.425 272.528 285.665 273.584C287.937 274.64 289.825 276.048 291.329 277.808C292.833 279.536 293.953 281.456 294.689 283.568C295.425 285.68 295.793 287.776 295.793 289.856V290.912C295.793 292.832 295.425 294.832 294.689 296.912C293.985 298.992 292.897 300.944 291.425 302.768C289.953 304.592 288.081 306.064 285.809 307.184C283.537 308.304 280.833 308.864 277.697 308.864ZM277.697 304.544C279.745 304.544 281.585 304.16 283.217 303.392C284.881 302.624 286.289 301.584 287.441 300.272C288.593 298.928 289.473 297.424 290.081 295.76C290.689 294.064 290.993 292.288 290.993 290.432C290.993 288.48 290.689 286.656 290.081 284.96C289.473 283.264 288.593 281.776 287.441 280.496C286.289 279.184 284.881 278.16 283.217 277.424C281.585 276.688 279.745 276.32 277.697 276.32C275.649 276.32 273.793 276.688 272.129 277.424C270.497 278.16 269.105 279.184 267.953 280.496C266.801 281.776 265.921 283.264 265.313 284.96C264.705 286.656 264.401 288.48 264.401 290.432C264.401 292.288 264.705 294.064 265.313 295.76C265.921 297.424 266.801 298.928 267.953 300.272C269.105 301.584 270.497 302.624 272.129 303.392C273.793 304.16 275.649 304.544 277.697 304.544ZM322.732 308V272.96H327.436V308H322.732ZM326.476 308V303.776H342.508V308H326.476ZM381.069 308.864C377.901 308.864 375.229 308.256 373.053 307.04C370.909 305.792 369.277 304.064 368.157 301.856C367.069 299.616 366.525 297.024 366.525 294.08V272.96H371.229V294.656C371.229 296.608 371.597 298.336 372.333 299.84C373.101 301.312 374.221 302.464 375.693 303.296C377.165 304.128 378.957 304.544 381.069 304.544C383.181 304.544 384.957 304.144 386.397 303.344C387.869 302.512 388.973 301.36 389.709 299.888C390.477 298.384 390.861 296.64 390.861 294.656V272.96H395.565V294.08C395.565 297.024 395.021 299.616 393.933 301.856C392.845 304.064 391.229 305.792 389.085 307.04C386.941 308.256 384.269 308.864 381.069 308.864ZM430.995 308V276.224H435.699V308H430.995ZM420.339 277.184V272.96H446.355V277.184H420.339ZM471.975 308V272.96H476.679V308H471.975ZM521.868 308.864C518.732 308.864 516.028 308.304 513.756 307.184C511.484 306.064 509.612 304.592 508.14 302.768C506.668 300.944 505.564 298.992 504.828 296.912C504.124 294.832 503.772 292.832 503.772 290.912V289.856C503.772 287.776 504.14 285.68 504.876 283.568C505.612 281.456 506.732 279.536 508.236 277.808C509.74 276.048 511.612 274.64 513.852 273.584C516.124 272.528 518.796 272 521.868 272C524.94 272 527.596 272.528 529.836 273.584C532.108 274.64 533.996 276.048 535.5 277.808C537.004 279.536 538.124 281.456 538.86 283.568C539.596 285.68 539.964 287.776 539.964 289.856V290.912C539.964 292.832 539.596 294.832 538.86 296.912C538.156 298.992 537.068 300.944 535.596 302.768C534.124 304.592 532.252 306.064 529.98 307.184C527.708 308.304 525.004 308.864 521.868 308.864ZM521.868 304.544C523.916 304.544 525.756 304.16 527.388 303.392C529.052 302.624 530.46 301.584 531.612 300.272C532.764 298.928 533.644 297.424 534.252 295.76C534.86 294.064 535.164 292.288 535.164 290.432C535.164 288.48 534.86 286.656 534.252 284.96C533.644 283.264 532.764 281.776 531.612 280.496C530.46 279.184 529.052 278.16 527.388 277.424C525.756 276.688 523.916 276.32 521.868 276.32C519.82 276.32 517.964 276.688 516.3 277.424C514.668 278.16 513.276 279.184 512.124 280.496C510.972 281.776 510.092 283.264 509.484 284.96C508.876 286.656 508.572 288.48 508.572 290.432C508.572 292.288 508.876 294.064 509.484 295.76C510.092 297.424 510.972 298.928 512.124 300.272C513.276 301.584 514.668 302.624 516.3 303.392C517.964 304.16 519.82 304.544 521.868 304.544ZM566.904 308V272.96H574.584L592.392 303.776H593.928L592.968 304.64V272.96H597.48V308H589.704L571.896 277.184H570.36L571.32 276.32V308H566.904ZM638.214 308.864C635.302 308.864 632.822 308.384 630.774 307.424C628.726 306.464 627.158 305.136 626.07 303.44C624.982 301.744 624.438 299.824 624.438 297.68H629.142C629.142 298.736 629.414 299.792 629.958 300.848C630.534 301.904 631.478 302.784 632.79 303.488C634.134 304.192 635.942 304.544 638.214 304.544C640.326 304.544 642.054 304.24 643.398 303.632C644.742 302.992 645.734 302.176 646.374 301.184C647.014 300.16 647.334 299.056 647.334 297.872C647.334 296.432 646.71 295.248 645.462 294.32C644.214 293.36 642.39 292.768 639.99 292.544L636.102 292.208C632.998 291.952 630.518 290.992 628.662 289.328C626.806 287.664 625.878 285.472 625.878 282.752C625.878 280.608 626.39 278.736 627.414 277.136C628.47 275.536 629.926 274.288 631.782 273.392C633.638 272.464 635.798 272 638.262 272C640.694 272 642.838 272.448 644.694 273.344C646.55 274.24 647.99 275.504 649.014 277.136C650.07 278.736 650.598 280.656 650.598 282.896H645.894C645.894 281.776 645.622 280.72 645.078 279.728C644.566 278.736 643.75 277.92 642.63 277.28C641.51 276.64 640.054 276.32 638.262 276.32C636.534 276.32 635.094 276.624 633.942 277.232C632.822 277.84 631.974 278.64 631.398 279.632C630.854 280.592 630.582 281.632 630.582 282.752C630.582 284.032 631.078 285.168 632.07 286.16C633.062 287.152 634.534 287.728 636.486 287.888L640.374 288.224C642.774 288.416 644.838 288.928 646.566 289.76C648.326 290.56 649.67 291.648 650.598 293.024C651.558 294.368 652.038 295.984 652.038 297.872C652.038 300.016 651.462 301.92 650.31 303.584C649.158 305.248 647.542 306.544 645.462 307.472C643.382 308.4 640.966 308.864 638.214 308.864ZM709.254 308V272.96H713.958V308H709.254ZM712.998 308V303.776H729.03V308H712.998ZM751.382 308L764.006 272.96H771.974L784.982 308H780.134L768.374 276.032L770.678 277.184H765.014L767.462 276.032L756.086 308H751.382ZM758.918 297.536L760.502 293.312H775.622L777.206 297.536H758.918ZM814.351 308.192V304.064H824.143C826.031 304.064 827.487 303.536 828.511 302.48C829.567 301.392 830.095 299.952 830.095 298.16C830.095 296.336 829.583 294.912 828.559 293.888C827.535 292.832 826.063 292.304 824.143 292.304H814.351V289.232H823.471C825.711 289.232 827.679 289.504 829.375 290.048C831.103 290.592 832.447 291.504 833.407 292.784C834.399 294.032 834.895 295.744 834.895 297.92V298.592C834.895 300.64 834.479 302.384 833.647 303.824C832.815 305.232 831.551 306.32 829.855 307.088C828.159 307.824 826.031 308.192 823.471 308.192H814.351ZM810.607 308.192V272.768H815.311V308.192H810.607ZM814.351 291.44V288.368H822.847C824.831 288.368 826.287 287.84 827.215 286.784C828.175 285.696 828.655 284.32 828.655 282.656C828.655 280.96 828.175 279.584 827.215 278.528C826.287 277.44 824.831 276.896 822.847 276.896H814.351V272.768H822.031C825.871 272.768 828.735 273.584 830.623 275.216C832.511 276.816 833.455 279.136 833.455 282.176V282.848C833.455 284.992 832.975 286.704 832.015 287.984C831.055 289.232 829.711 290.128 827.983 290.672C826.287 291.184 824.303 291.44 822.031 291.44H814.351Z" fill="#737477"/>
<defs>
<linearGradient id="paint0_linear_9_2" x1="975.424" y1="1.79258e-05" x2="868.339" y2="231" gradientUnits="userSpaceOnUse">
<stop stop-color="#2BC6FF"/>
<stop offset="0.322115" stop-color="#2962FF"/>
<stop offset="0.806098" stop-color="#704EFF"/>
<stop offset="0.985577" stop-color="#6C2DFF"/>
</linearGradient>
</defs>
</svg>
